<?xml version="1.0" encoding="utf-8"?>
<!-- Generator: Adobe Illustrator 16.0.0, SVG Export Plug-In . SVG Version: 6.00 Build 0)  -->
<!DOCTYPE svg PUBLIC "-//W3C//DTD SVG 1.1//EN" "http://www.w3.org/Graphics/SVG/1.1/DTD/svg11.dtd">
<svg version="1.1" id="Layer_1" xmlns="http://www.w3.org/2000/svg" xmlns:xlink="http://www.w3.org/1999/xlink" x="0px" y="0px"
	 width="528.748px" height="186.55px" viewBox="128.727 152.101 528.748 186.55"
	 enable-background="new 128.727 152.101 528.748 186.55" xml:space="preserve">
<g>
	<path fill="#25A9E0" d="M356.08,249.186c-6.044-3.372-10.704-8.17-13.971-14.378c-3.27-6.207-4.902-13.457-4.902-21.736
		c0-8.275,1.715-15.604,5.148-21.978c3.431-6.374,8.251-11.303,14.46-14.789c6.209-3.483,13.345-5.23,21.408-5.23
		c4.249,0,8.522,0.604,12.827,1.795c4.303,1.205,8.091,2.837,11.357,4.904c3.486,2.286,5.23,5.177,5.23,8.661
		c0,2.396-0.571,4.329-1.719,5.801c-1.143,1.473-2.641,2.208-4.49,2.208c-1.201,0-2.453-0.272-3.759-0.819
		c-1.31-0.544-2.617-1.197-3.925-1.959c-2.396-1.415-4.684-2.534-6.861-3.353c-2.182-0.815-4.686-1.22-7.517-1.22
		c-6.757,0-11.958,2.2-15.606,6.615c-3.651,4.411-5.475,10.762-5.475,19.035c0,8.172,1.823,14.464,5.475,18.876
		c3.648,4.412,8.85,6.618,15.606,6.618c2.722,0,5.146-0.409,7.271-1.225c2.124-0.817,4.494-1.934,7.107-3.352
		c1.635-0.979,3.049-1.717,4.25-2.205c1.198-0.489,2.395-0.734,3.596-0.734c1.74,0,3.213,0.765,4.411,2.287
		c1.198,1.527,1.796,3.431,1.796,5.721c0,1.851-0.406,3.461-1.225,4.821c-0.816,1.362-2.15,2.586-4.002,3.676
		c-3.378,2.182-7.301,3.897-11.768,5.148c-4.467,1.249-9.042,1.881-13.725,1.881C369.125,254.256,362.128,252.563,356.08,249.186"/>
	<path fill="#25A9E0" d="M480.766,179.329c5.392,5.502,8.088,13.863,8.088,25.083v39.874c0,2.938-0.875,5.256-2.613,6.945
		c-1.746,1.688-4.143,2.53-7.191,2.53c-2.835,0-5.146-0.868-6.943-2.612c-1.799-1.742-2.697-4.031-2.697-6.863v-3.6
		c-1.854,4.253-4.768,7.575-8.743,9.973c-3.981,2.394-8.579,3.597-13.809,3.597c-5.341,0-10.188-1.095-14.544-3.271
		c-4.359-2.18-7.792-5.175-10.295-8.99c-2.509-3.812-3.762-8.059-3.762-12.743c0-5.884,1.5-10.514,4.497-13.891
		c2.993-3.377,7.871-5.828,14.624-7.355c6.756-1.523,16.067-2.286,27.943-2.286h4.088v-3.758c0-5.34-1.146-9.234-3.434-11.687
		c-2.286-2.45-5.99-3.679-11.111-3.679c-3.162,0-6.373,0.467-9.641,1.392c-3.27,0.927-7.139,2.262-11.604,4.003
		c-2.836,1.417-4.902,2.127-6.207,2.127c-1.962,0-3.572-0.71-4.824-2.127c-1.252-1.414-1.879-3.268-1.879-5.554
		c0-1.852,0.463-3.456,1.39-4.822c0.923-1.358,2.478-2.639,4.659-3.842c3.812-2.067,8.358-3.699,13.644-4.9
		c5.281-1.197,10.483-1.799,15.604-1.799C467.119,171.074,475.371,173.827,480.766,179.329 M464.26,234.073
		c3.431-3.648,5.148-8.363,5.148-14.136v-3.433h-2.941c-7.303,0-12.967,0.325-16.998,0.98c-4.029,0.653-6.919,1.797-8.658,3.43
		c-1.744,1.633-2.617,3.869-2.617,6.703c0,3.487,1.228,6.346,3.678,8.577c2.453,2.235,5.475,3.349,9.07,3.349
		C456.387,239.544,460.826,237.726,464.26,234.073"/>
	<path fill="#25A9E0" d="M522.086,249.186c-6.046-3.372-10.703-8.17-13.971-14.378c-3.271-6.207-4.902-13.457-4.902-21.736
		c0-8.275,1.714-15.604,5.145-21.978c3.436-6.374,8.254-11.303,14.465-14.789c6.207-3.483,13.342-5.23,21.408-5.23
		c4.247,0,8.521,0.604,12.828,1.795c4.301,1.205,8.088,2.837,11.355,4.904c3.484,2.286,5.231,5.177,5.231,8.661
		c0,2.396-0.573,4.329-1.719,5.801c-1.142,1.473-2.642,2.208-4.494,2.208c-1.199,0-2.452-0.272-3.759-0.819
		c-1.307-0.544-2.613-1.197-3.922-1.959c-2.396-1.415-4.684-2.534-6.861-3.353c-2.181-0.815-4.687-1.22-7.518-1.22
		c-6.757,0-11.955,2.2-15.607,6.615c-3.648,4.411-5.474,10.762-5.474,19.035c0,8.172,1.825,14.464,5.474,18.876
		c3.652,4.412,8.851,6.618,15.607,6.618c2.722,0,5.148-0.409,7.271-1.225c2.125-0.817,4.496-1.934,7.107-3.352
		c1.635-0.979,3.05-1.717,4.25-2.205c1.199-0.489,2.396-0.734,3.596-0.734c1.739,0,3.213,0.765,4.412,2.287
		c1.197,1.527,1.797,3.431,1.797,5.721c0,1.851-0.408,3.461-1.225,4.821c-0.816,1.362-2.15,2.586-4.006,3.676
		c-3.375,2.182-7.3,3.897-11.764,5.148c-4.469,1.249-9.045,1.881-13.728,1.881C535.131,254.256,528.132,252.563,522.086,249.186"/>
	<path fill="#25A9E0" d="M655.104,233.172c1.145,1.419,1.717,3.327,1.717,5.72c0,3.38-2.018,6.212-6.045,8.5
		c-3.705,2.067-7.902,3.73-12.584,4.983c-4.686,1.249-9.15,1.878-13.398,1.878c-12.859,0-23.043-3.705-30.559-11.11
		c-7.521-7.408-11.275-17.541-11.275-30.396c0-8.17,1.633-15.415,4.902-21.732c3.267-6.318,7.867-11.223,13.809-14.708
		c5.934-3.484,12.665-5.231,20.18-5.231c7.191,0,13.453,1.581,18.795,4.738c5.334,3.164,9.477,7.627,12.416,13.401
		c2.943,5.774,4.414,12.584,4.414,20.428c0,4.686-2.07,7.027-6.211,7.027h-48.207c0.654,7.516,2.779,13.048,6.373,16.583
		c3.596,3.545,8.826,5.314,15.688,5.314c3.486,0,6.563-0.437,9.236-1.307c2.668-0.873,5.691-2.069,9.066-3.599
		c3.27-1.738,5.664-2.61,7.189-2.61C652.463,231.051,653.961,231.759,655.104,233.172 M609.023,190.685
		c-3.324,3.486-5.313,8.497-5.967,15.035h36.934c-0.219-6.645-1.854-11.686-4.904-15.117c-3.051-3.43-7.301-5.146-12.746-5.146
		C616.784,185.456,612.345,187.199,609.023,190.685"/>
	<g>
		<path fill="#1B75BB" d="M346.439,287.851c-1.574-0.912-2.784-2.227-3.624-3.938c-0.841-1.716-1.261-3.736-1.261-6.067
			c0-2.314,0.42-4.327,1.261-6.038c0.84-1.716,2.05-3.026,3.624-3.94c1.578-0.916,3.426-1.372,5.549-1.372
			c1.387,0,2.7,0.217,3.94,0.644c1.241,0.433,2.322,1.059,3.246,1.878c0.401,0.317,0.6,0.735,0.6,1.261
			c0,0.378-0.106,0.697-0.314,0.96c-0.211,0.266-0.462,0.397-0.758,0.397c-0.358,0-0.704-0.137-1.041-0.412
			c-1.008-0.756-1.928-1.285-2.758-1.592c-0.831-0.302-1.77-0.457-2.82-0.457c-2.313,0-4.089,0.745-5.328,2.236
			c-1.241,1.496-1.86,3.64-1.86,6.436c0,2.813,0.619,4.969,1.86,6.461c1.239,1.492,3.015,2.237,5.328,2.237
			c1.007,0,1.928-0.159,2.758-0.473c0.83-0.316,1.77-0.841,2.82-1.576c0.421-0.274,0.768-0.408,1.041-0.408
			c0.296,0,0.546,0.129,0.758,0.394c0.208,0.262,0.314,0.582,0.314,0.959c0,0.528-0.199,0.945-0.6,1.261
			c-0.924,0.821-2.005,1.445-3.246,1.878c-1.24,0.429-2.553,0.644-3.94,0.644C349.865,289.221,348.017,288.765,346.439,287.851z"/>
		<path fill="#1B75BB" d="M374.983,274.753c0.999,1.029,1.499,2.596,1.499,4.698v8.163c0,0.483-0.137,0.858-0.409,1.12
			c-0.274,0.264-0.652,0.393-1.135,0.393c-0.463,0-0.831-0.137-1.103-0.408c-0.273-0.274-0.41-0.643-0.41-1.104v-1.166
			c-0.4,0.883-0.994,1.562-1.782,2.031c-0.788,0.474-1.707,0.711-2.758,0.711c-1.009,0-1.934-0.207-2.774-0.613
			c-0.841-0.412-1.498-0.983-1.97-1.721c-0.474-0.734-0.709-1.553-0.709-2.459c0-1.112,0.288-1.99,0.866-2.63
			c0.578-0.643,1.535-1.1,2.87-1.371c1.334-0.273,3.167-0.41,5.5-0.41h0.726v-0.915c0-1.178-0.243-2.026-0.726-2.553
			c-0.483-0.525-1.26-0.787-2.333-0.787c-0.735,0-1.428,0.094-2.08,0.282c-0.651,0.188-1.366,0.462-2.144,0.821
			c-0.568,0.313-0.967,0.474-1.198,0.474c-0.315,0-0.573-0.116-0.771-0.349c-0.201-0.23-0.301-0.526-0.301-0.884
			c0-0.315,0.09-0.591,0.269-0.833c0.179-0.243,0.468-0.479,0.867-0.709c0.736-0.399,1.596-0.723,2.584-0.962
			c0.989-0.244,1.944-0.362,2.869-0.362C372.467,273.21,373.985,273.724,374.983,274.753z M372.289,285.644
			c0.735-0.788,1.103-1.801,1.103-3.042v-0.818h-0.568c-1.638,0-2.899,0.075-3.782,0.221c-0.882,0.146-1.513,0.393-1.891,0.74
			c-0.379,0.347-0.568,0.848-0.568,1.497c0,0.757,0.274,1.378,0.819,1.86c0.546,0.482,1.229,0.726,2.048,0.726
			C370.607,286.827,371.552,286.434,372.289,285.644z M370.492,271.727c-0.231,0-0.436-0.082-0.615-0.252
			c-0.179-0.169-0.268-0.366-0.268-0.601c0-0.209,0.074-0.396,0.222-0.566l3.404-4.445c0.42-0.566,0.903-0.85,1.451-0.85
			c0.398,0,0.735,0.137,1.007,0.41c0.275,0.272,0.412,0.598,0.412,0.976c0,0.485-0.253,0.936-0.757,1.357l-4.255,3.751
			C370.922,271.653,370.723,271.727,370.492,271.727z"/>
		<path fill="#1B75BB" d="M404.129,279.417v8.197c0,0.483-0.152,0.858-0.445,1.12c-0.294,0.264-0.681,0.393-1.166,0.393
			c-0.462,0-0.84-0.129-1.133-0.393c-0.294-0.262-0.439-0.637-0.439-1.12v-8.163c0-1.283-0.232-2.212-0.695-2.791
			c-0.462-0.579-1.187-0.867-2.174-0.867c-1.157,0-2.072,0.393-2.744,1.184c-0.674,0.787-1.01,1.864-1.01,3.229v7.408
			c0,0.483-0.146,0.858-0.44,1.12c-0.296,0.264-0.684,0.393-1.167,0.393c-0.463,0-0.84-0.129-1.135-0.393
			c-0.296-0.262-0.442-0.637-0.442-1.12v-8.163c0-1.283-0.231-2.212-0.692-2.791c-0.464-0.579-1.188-0.867-2.176-0.867
			c-1.155,0-2.075,0.393-2.758,1.184c-0.683,0.787-1.023,1.864-1.023,3.229v7.408c0,0.483-0.147,0.858-0.442,1.12
			c-0.294,0.264-0.674,0.393-1.135,0.393c-0.462,0-0.847-0.129-1.15-0.393c-0.305-0.262-0.457-0.637-0.457-1.12v-12.831
			c0-0.46,0.158-0.829,0.473-1.103c0.315-0.272,0.694-0.409,1.135-0.409c0.441,0,0.804,0.132,1.088,0.394
			c0.283,0.263,0.426,0.625,0.426,1.088v1.167c0.462-0.882,1.104-1.556,1.922-2.019c0.821-0.46,1.766-0.691,2.837-0.691
			c1.178,0,2.149,0.24,2.916,0.725c0.768,0.482,1.34,1.228,1.718,2.237c0.464-0.903,1.146-1.624,2.048-2.161
			c0.903-0.536,1.936-0.801,3.092-0.801C402.403,273.21,404.129,275.279,404.129,279.417z"/>
		<path fill="#1B75BB" d="M419.809,274.753c0.999,1.029,1.499,2.596,1.499,4.698v8.163c0,0.483-0.138,0.858-0.411,1.12
			c-0.274,0.264-0.652,0.393-1.135,0.393c-0.463,0-0.832-0.137-1.103-0.408c-0.272-0.274-0.411-0.643-0.411-1.104v-1.166
			c-0.398,0.883-0.992,1.562-1.78,2.031c-0.788,0.474-1.708,0.711-2.759,0.711c-1.008,0-1.934-0.207-2.775-0.613
			c-0.84-0.412-1.496-0.983-1.969-1.721c-0.472-0.734-0.709-1.553-0.709-2.459c0-1.112,0.288-1.99,0.867-2.63
			c0.578-0.643,1.533-1.1,2.868-1.371c1.334-0.273,3.168-0.41,5.501-0.41h0.725v-0.915c0-1.178-0.239-2.026-0.725-2.553
			c-0.482-0.525-1.261-0.787-2.333-0.787c-0.735,0-1.429,0.094-2.081,0.282s-1.365,0.462-2.145,0.821
			c-0.565,0.313-0.965,0.474-1.195,0.474c-0.316,0-0.574-0.116-0.773-0.349c-0.201-0.23-0.299-0.526-0.299-0.884
			c0-0.315,0.09-0.591,0.268-0.833c0.178-0.243,0.467-0.479,0.867-0.709c0.736-0.399,1.597-0.723,2.586-0.962
			c0.988-0.244,1.943-0.362,2.868-0.362C417.291,273.21,418.811,273.724,419.809,274.753z M417.115,285.644
			c0.734-0.788,1.102-1.801,1.102-3.042v-0.818h-0.567c-1.638,0-2.899,0.075-3.782,0.221c-0.883,0.146-1.514,0.393-1.893,0.74
			c-0.377,0.347-0.566,0.848-0.566,1.497c0,0.757,0.273,1.378,0.82,1.86c0.545,0.482,1.23,0.726,2.047,0.726
			C415.433,286.827,416.379,286.434,417.115,285.644z"/>
		<path fill="#1B75BB" d="M435.713,274.564c0,0.463-0.117,0.81-0.348,1.038c-0.231,0.233-0.63,0.368-1.197,0.411l-0.946,0.096
			c-1.323,0.125-2.306,0.59-2.946,1.387c-0.643,0.799-0.963,1.764-0.963,2.9v7.218c0,0.504-0.146,0.883-0.44,1.135
			c-0.295,0.253-0.674,0.378-1.136,0.378c-0.463,0-0.846-0.125-1.15-0.378c-0.305-0.252-0.457-0.631-0.457-1.135v-12.831
			c0-0.482,0.152-0.855,0.457-1.118c0.305-0.262,0.688-0.394,1.15-0.394c0.42,0,0.773,0.132,1.055,0.394
			c0.285,0.263,0.429,0.625,0.429,1.088v1.515c0.419-0.926,1.03-1.631,1.827-2.114c0.799-0.481,1.703-0.765,2.711-0.852l0.441-0.03
			C435.207,273.21,435.713,273.638,435.713,274.564z"/>
		<path fill="#1B75BB" d="M449.629,274.753c0.998,1.029,1.499,2.596,1.499,4.698v8.163c0,0.483-0.139,0.858-0.411,1.12
			c-0.275,0.264-0.652,0.393-1.135,0.393c-0.462,0-0.832-0.137-1.102-0.408c-0.274-0.274-0.412-0.643-0.412-1.104v-1.166
			c-0.397,0.883-0.992,1.562-1.781,2.031c-0.787,0.474-1.707,0.711-2.757,0.711c-1.01,0-1.935-0.207-2.775-0.613
			c-0.841-0.412-1.497-0.983-1.97-1.721c-0.471-0.734-0.709-1.553-0.709-2.459c0-1.112,0.289-1.99,0.867-2.63
			c0.577-0.643,1.533-1.1,2.868-1.371c1.333-0.273,3.168-0.41,5.501-0.41h0.725v-0.915c0-1.178-0.24-2.026-0.725-2.553
			c-0.482-0.525-1.262-0.787-2.333-0.787c-0.735,0-1.429,0.094-2.081,0.282s-1.366,0.462-2.144,0.821
			c-0.566,0.313-0.965,0.474-1.196,0.474c-0.315,0-0.574-0.116-0.773-0.349c-0.201-0.23-0.299-0.526-0.299-0.884
			c0-0.315,0.088-0.591,0.268-0.833c0.178-0.243,0.467-0.479,0.867-0.709c0.736-0.399,1.596-0.723,2.586-0.962
			c0.987-0.244,1.943-0.362,2.869-0.362C447.111,273.21,448.631,273.724,449.629,274.753z M446.934,285.644
			c0.737-0.788,1.104-1.801,1.104-3.042v-0.818h-0.567c-1.64,0-2.899,0.075-3.782,0.221c-0.883,0.146-1.515,0.393-1.893,0.74
			c-0.377,0.347-0.566,0.848-0.566,1.497c0,0.757,0.273,1.378,0.82,1.86c0.545,0.482,1.23,0.726,2.049,0.726
			C445.253,286.827,446.197,286.434,446.934,285.644z"/>
		<path fill="#1B75BB" d="M485.201,287.71c0,0.399-0.162,0.734-0.486,1.009c-0.326,0.271-0.689,0.408-1.088,0.408
			c-0.273,0-0.531-0.078-0.773-0.233c-0.24-0.159-0.425-0.385-0.553-0.679l-2.078-4.729h-11.537l-2.082,4.729
			c-0.127,0.294-0.316,0.52-0.566,0.679c-0.254,0.155-0.516,0.233-0.79,0.233c-0.42,0-0.791-0.137-1.118-0.408
			c-0.324-0.274-0.488-0.609-0.488-1.009c0-0.17,0.053-0.379,0.157-0.63l8.89-19.452c0.146-0.336,0.385-0.597,0.709-0.787
			c0.327-0.19,0.667-0.283,1.025-0.283c0.357,0,0.697,0.093,1.025,0.283c0.324,0.19,0.561,0.451,0.709,0.787l8.891,19.452
			C485.15,287.331,485.201,287.54,485.201,287.71z M469.851,280.901h9.235l-4.633-10.436L469.851,280.901z"/>
		<path fill="#1B75BB" d="M498.443,274.564c0,0.463-0.116,0.81-0.348,1.038c-0.23,0.233-0.629,0.368-1.195,0.411l-0.947,0.096
			c-1.323,0.125-2.307,0.59-2.947,1.387c-0.642,0.799-0.962,1.764-0.962,2.9v7.218c0,0.504-0.147,0.883-0.44,1.135
			c-0.295,0.253-0.675,0.378-1.137,0.378s-0.845-0.125-1.148-0.378c-0.306-0.252-0.459-0.631-0.459-1.135v-12.831
			c0-0.482,0.153-0.855,0.459-1.118c0.304-0.262,0.687-0.394,1.148-0.394c0.42,0,0.773,0.132,1.057,0.394
			c0.284,0.263,0.428,0.625,0.428,1.088v1.515c0.42-0.926,1.029-1.631,1.826-2.114c0.799-0.481,1.703-0.765,2.711-0.852l0.442-0.03
			C497.938,273.21,498.443,273.638,498.443,274.564z"/>
		<path fill="#1B75BB" d="M514.881,273.696c0.285,0.283,0.428,0.659,0.428,1.121v12.923c0,2.352-0.627,4.129-1.877,5.327
			c-1.248,1.2-3.094,1.798-5.532,1.798c-2.271,0-4.159-0.434-5.674-1.292c-0.776-0.442-1.166-0.969-1.166-1.578
			c0-0.356,0.099-0.65,0.298-0.882c0.201-0.231,0.447-0.347,0.743-0.347c0.272,0,0.702,0.158,1.292,0.474
			c0.756,0.356,1.461,0.635,2.112,0.834c0.651,0.2,1.427,0.3,2.332,0.3c2.899,0,4.351-1.46,4.351-4.381v-2.428
			c-0.441,0.925-1.115,1.645-2.018,2.161c-0.905,0.514-1.953,0.771-3.153,0.771c-1.345,0-2.542-0.314-3.593-0.945
			c-1.051-0.632-1.865-1.524-2.443-2.68c-0.578-1.158-0.867-2.49-0.867-4.003s0.295-2.848,0.883-4.003
			c0.59-1.157,1.402-2.056,2.443-2.696c1.039-0.642,2.232-0.96,3.577-0.96c1.177,0,2.214,0.251,3.106,0.755
			c0.892,0.505,1.57,1.22,2.033,2.145v-1.326c0-0.46,0.141-0.829,0.424-1.103c0.285-0.272,0.668-0.409,1.152-0.409
			C514.215,273.271,514.6,273.415,514.881,273.696z M510.988,284.62c0.778-0.906,1.168-2.153,1.168-3.751
			c0-1.575-0.385-2.821-1.15-3.735c-0.77-0.916-1.846-1.373-3.232-1.373c-1.385,0-2.473,0.452-3.262,1.355
			c-0.787,0.905-1.183,2.154-1.183,3.753c0,1.598,0.399,2.845,1.197,3.751c0.798,0.903,1.881,1.354,3.247,1.354
			C509.141,285.975,510.213,285.523,510.988,284.62z"/>
		<path fill="#1B75BB" d="M533.023,285.438c0.189,0.231,0.285,0.528,0.285,0.882c0,0.611-0.379,1.126-1.137,1.546
			c-0.734,0.421-1.538,0.745-2.41,0.979c-0.874,0.229-1.709,0.346-2.506,0.346c-2.439,0-4.363-0.711-5.77-2.129
			c-1.408-1.418-2.113-3.357-2.113-5.813c0-1.578,0.312-2.976,0.932-4.193c0.618-1.219,1.492-2.164,2.615-2.838
			c1.125-0.672,2.401-1.007,3.832-1.007c2.059,0,3.688,0.66,4.885,1.985c1.197,1.323,1.797,3.109,1.797,5.358
			c0,0.842-0.379,1.261-1.135,1.261h-9.742c0.213,3.257,1.777,4.885,4.699,4.885c0.775,0,1.449-0.103,2.018-0.315
			c0.567-0.209,1.166-0.481,1.796-0.818c0.062-0.042,0.235-0.132,0.521-0.269c0.283-0.136,0.52-0.205,0.709-0.205
			C532.593,285.092,532.834,285.208,533.023,285.438z M523.883,276.707c-0.736,0.778-1.18,1.87-1.326,3.279h8.135
			c-0.063-1.43-0.426-2.528-1.087-3.295c-0.663-0.767-1.593-1.15-2.79-1.15C525.595,275.541,524.616,275.931,523.883,276.707z"/>
		<path fill="#1B75BB" d="M551.34,279.417v8.197c0,0.483-0.143,0.858-0.426,1.12c-0.284,0.264-0.678,0.393-1.182,0.393
			c-0.486,0-0.869-0.137-1.152-0.408c-0.283-0.274-0.426-0.643-0.426-1.104v-8.038c0-1.304-0.257-2.26-0.771-2.869
			c-0.516-0.609-1.32-0.914-2.412-0.914c-1.279,0-2.313,0.4-3.089,1.199c-0.778,0.797-1.167,1.87-1.167,3.214v7.408
			c0,0.462-0.143,0.83-0.424,1.104c-0.286,0.271-0.668,0.408-1.152,0.408c-0.482,0-0.871-0.137-1.166-0.408
			c-0.295-0.274-0.442-0.643-0.442-1.104v-12.831c0-0.438,0.154-0.804,0.458-1.087c0.305-0.281,0.688-0.425,1.15-0.425
			s0.832,0.137,1.104,0.409c0.271,0.273,0.409,0.631,0.409,1.072v1.291c0.505-0.924,1.208-1.627,2.112-2.109
			c0.903-0.484,1.924-0.725,3.058-0.725C549.501,273.21,551.34,275.279,551.34,279.417z"/>
		<path fill="#1B75BB" d="M564.783,287.062c0.199,0.201,0.301,0.479,0.301,0.838c0,0.419-0.164,0.739-0.49,0.96
			c-0.324,0.222-0.803,0.312-1.434,0.268l-0.852-0.061c-1.701-0.128-2.974-0.648-3.814-1.562c-0.84-0.914-1.26-2.267-1.26-4.051
			v-7.41h-1.893c-0.926,0-1.388-0.408-1.388-1.227c0-0.38,0.122-0.679,0.364-0.9c0.24-0.221,0.582-0.329,1.023-0.329h1.893v-3.249
			c0-0.483,0.143-0.86,0.424-1.135c0.285-0.273,0.668-0.408,1.152-0.408c0.482,0,0.871,0.135,1.165,0.408
			c0.296,0.274,0.442,0.651,0.442,1.135v3.249h3.119c0.443,0,0.783,0.108,1.025,0.329c0.242,0.222,0.363,0.521,0.363,0.9
			c0,0.398-0.121,0.703-0.363,0.914c-0.242,0.208-0.582,0.313-1.025,0.313h-3.119v7.63c0,0.989,0.204,1.714,0.613,2.174
			c0.41,0.463,1.037,0.728,1.877,0.79l0.883,0.062C564.251,286.742,564.583,286.864,564.783,287.062z"/>
		<path fill="#1B75BB" d="M568.326,269.678c-0.357-0.335-0.535-0.777-0.535-1.324c0-0.546,0.178-0.98,0.535-1.308
			c0.358-0.326,0.842-0.488,1.451-0.488c0.589,0,1.066,0.162,1.434,0.488c0.369,0.327,0.555,0.762,0.555,1.308
			c0,0.547-0.181,0.989-0.536,1.324c-0.358,0.337-0.843,0.505-1.452,0.505S568.685,270.015,568.326,269.678z M568.627,288.749
			c-0.305-0.252-0.458-0.631-0.458-1.135v-12.797c0-0.506,0.153-0.89,0.458-1.152c0.305-0.262,0.688-0.394,1.15-0.394
			s0.84,0.132,1.137,0.394c0.293,0.263,0.439,0.646,0.439,1.152v12.797c0,0.504-0.146,0.883-0.439,1.135
			c-0.297,0.253-0.674,0.378-1.137,0.378S568.932,289.002,568.627,288.749z"/>
		<path fill="#1B75BB" d="M590.08,279.417v8.197c0,0.483-0.143,0.858-0.424,1.12c-0.285,0.264-0.678,0.393-1.184,0.393
			c-0.484,0-0.867-0.137-1.152-0.408c-0.281-0.274-0.424-0.643-0.424-1.104v-8.038c0-1.304-0.259-2.26-0.771-2.869
			c-0.517-0.609-1.321-0.914-2.412-0.914c-1.283,0-2.314,0.4-3.09,1.199c-0.778,0.797-1.167,1.87-1.167,3.214v7.408
			c0,0.462-0.142,0.83-0.425,1.104c-0.285,0.271-0.667,0.408-1.152,0.408c-0.482,0-0.871-0.137-1.164-0.408
			c-0.297-0.274-0.443-0.643-0.443-1.104v-12.831c0-0.438,0.153-0.804,0.459-1.087c0.305-0.281,0.688-0.425,1.148-0.425
			c0.463,0,0.832,0.137,1.105,0.409c0.271,0.273,0.41,0.631,0.41,1.072v1.291c0.504-0.924,1.207-1.627,2.112-2.109
			c0.902-0.484,1.923-0.725,3.057-0.725C588.241,273.21,590.08,275.279,590.08,279.417z"/>
		<path fill="#1B75BB" d="M605.73,274.753c0.998,1.029,1.498,2.596,1.498,4.698v8.163c0,0.483-0.139,0.858-0.412,1.12
			c-0.272,0.264-0.65,0.393-1.133,0.393c-0.463,0-0.833-0.137-1.104-0.408c-0.273-0.274-0.412-0.643-0.412-1.104v-1.166
			c-0.396,0.883-0.991,1.562-1.78,2.031c-0.786,0.474-1.708,0.711-2.757,0.711c-1.01,0-1.936-0.207-2.775-0.613
			c-0.84-0.412-1.496-0.983-1.97-1.721c-0.472-0.734-0.71-1.553-0.71-2.459c0-1.112,0.289-1.99,0.867-2.63
			c0.578-0.643,1.535-1.1,2.869-1.371c1.334-0.273,3.168-0.41,5.501-0.41h0.724v-0.915c0-1.178-0.239-2.026-0.724-2.553
			c-0.483-0.525-1.261-0.787-2.333-0.787c-0.736,0-1.43,0.094-2.082,0.282c-0.65,0.188-1.364,0.462-2.143,0.821
			c-0.566,0.313-0.965,0.474-1.197,0.474c-0.314,0-0.572-0.116-0.772-0.349c-0.2-0.23-0.298-0.526-0.298-0.884
			c0-0.315,0.088-0.591,0.266-0.833c0.179-0.243,0.469-0.479,0.868-0.709c0.736-0.399,1.597-0.723,2.585-0.962
			c0.988-0.244,1.944-0.362,2.87-0.362C603.213,273.21,604.73,273.724,605.73,274.753z M603.035,285.644
			c0.736-0.788,1.102-1.801,1.102-3.042v-0.818h-0.566c-1.639,0-2.9,0.075-3.781,0.221c-0.883,0.146-1.516,0.393-1.893,0.74
			c-0.378,0.347-0.568,0.848-0.568,1.497c0,0.757,0.274,1.378,0.822,1.86c0.544,0.482,1.229,0.726,2.048,0.726
			C601.354,286.827,602.299,286.434,603.035,285.644z"/>
		<path fill="#1B75BB" d="M634.904,266.998c0.295,0.275,0.439,0.641,0.439,1.104v19.481c0,0.484-0.141,0.861-0.424,1.136
			c-0.285,0.271-0.668,0.408-1.152,0.408c-0.482,0-0.865-0.137-1.148-0.408c-0.285-0.274-0.426-0.651-0.426-1.136v-1.263
			c-0.465,0.927-1.135,1.636-2.018,2.129c-0.883,0.494-1.902,0.741-3.059,0.741c-1.324,0-2.506-0.335-3.545-1.008
			c-1.041-0.674-1.852-1.619-2.428-2.838c-0.579-1.217-0.867-2.618-0.867-4.193c0-1.596,0.288-2.994,0.867-4.191
			c0.576-1.199,1.383-2.123,2.41-2.774c1.031-0.652,2.217-0.976,3.563-0.976c1.156,0,2.17,0.248,3.043,0.74
			c0.871,0.492,1.539,1.191,2,2.094v-8.006c0-0.44,0.143-0.792,0.428-1.055c0.281-0.264,0.664-0.396,1.15-0.396
			C634.221,266.588,634.609,266.726,634.904,266.998z M631.059,285.251c0.756-0.945,1.135-2.29,1.135-4.037
			c0-1.742-0.373-3.087-1.119-4.034c-0.748-0.945-1.813-1.419-3.201-1.419c-1.387,0-2.463,0.468-3.23,1.404
			c-0.766,0.934-1.15,2.264-1.15,3.986c0,1.724,0.387,3.073,1.166,4.053c0.779,0.975,1.852,1.464,3.215,1.464
			C629.24,286.668,630.303,286.196,631.059,285.251z"/>
		<path fill="#1B75BB" d="M653.061,285.438c0.191,0.231,0.285,0.528,0.285,0.882c0,0.611-0.377,1.126-1.135,1.546
			c-0.736,0.421-1.539,0.745-2.41,0.979c-0.873,0.229-1.709,0.346-2.506,0.346c-2.439,0-4.363-0.711-5.77-2.129
			c-1.408-1.418-2.113-3.357-2.113-5.813c0-1.578,0.313-2.976,0.932-4.193c0.619-1.219,1.492-2.164,2.615-2.838
			c1.125-0.672,2.4-1.007,3.832-1.007c2.059,0,3.688,0.66,4.885,1.985c1.197,1.323,1.797,3.109,1.797,5.358
			c0,0.842-0.379,1.261-1.133,1.261h-9.742c0.211,3.257,1.777,4.885,4.697,4.885c0.775,0,1.449-0.103,2.016-0.315
			c0.568-0.209,1.168-0.481,1.797-0.818c0.063-0.042,0.236-0.132,0.521-0.269c0.283-0.136,0.52-0.205,0.711-0.205
			C652.633,285.092,652.873,285.208,653.061,285.438z M643.922,276.707c-0.736,0.778-1.178,1.87-1.324,3.279h8.133
			c-0.063-1.43-0.426-2.528-1.088-3.295c-0.664-0.767-1.592-1.15-2.791-1.15C645.633,275.541,644.654,275.931,643.922,276.707z"/>
	</g>
	<g>
		<path fill="#1B75BB" d="M347.859,321.992c-1.576-0.914-2.786-2.228-3.625-3.94c-0.84-1.714-1.26-3.734-1.26-6.068
			c0-2.313,0.42-4.325,1.26-6.036c0.84-1.716,2.049-3.027,3.625-3.941c1.576-0.914,3.425-1.371,5.548-1.371
			c1.387,0,2.7,0.217,3.94,0.645c1.239,0.431,2.321,1.058,3.247,1.878c0.399,0.316,0.599,0.736,0.599,1.259
			c0,0.38-0.106,0.698-0.315,0.961c-0.211,0.266-0.462,0.397-0.756,0.397c-0.359,0-0.705-0.138-1.041-0.414
			c-1.009-0.754-1.929-1.284-2.759-1.592c-0.831-0.301-1.77-0.455-2.82-0.455c-2.313,0-4.088,0.745-5.328,2.237
			c-1.241,1.495-1.861,3.638-1.861,6.433c0,2.815,0.62,4.97,1.861,6.463c1.24,1.492,3.015,2.237,5.328,2.237
			c1.008,0,1.928-0.158,2.758-0.473c0.829-0.316,1.77-0.841,2.821-1.576c0.42-0.274,0.766-0.409,1.041-0.409
			c0.294,0,0.545,0.131,0.756,0.395c0.209,0.261,0.315,0.582,0.315,0.961c0,0.525-0.2,0.944-0.599,1.259
			c-0.925,0.821-2.007,1.447-3.247,1.876c-1.241,0.43-2.554,0.646-3.94,0.646C351.284,323.361,349.435,322.905,347.859,321.992z"/>
		<path fill="#1B75BB" d="M367.986,322.355c-1.146-0.651-2.028-1.582-2.648-2.791c-0.62-1.208-0.93-2.611-0.93-4.209
			c0-1.617,0.31-3.031,0.93-4.238c0.62-1.21,1.503-2.141,2.648-2.792c1.145-0.65,2.475-0.975,3.988-0.975
			c1.512,0,2.841,0.324,3.988,0.975c1.145,0.651,2.028,1.582,2.647,2.792c0.62,1.207,0.931,2.621,0.931,4.238
			c0,1.598-0.311,3.001-0.931,4.209c-0.619,1.209-1.502,2.14-2.647,2.791c-1.147,0.65-2.476,0.976-3.988,0.976
			C370.461,323.331,369.131,323.006,367.986,322.355z M375.204,319.422c0.747-0.922,1.12-2.279,1.12-4.066
			c0-1.764-0.378-3.116-1.135-4.05c-0.756-0.937-1.829-1.402-3.215-1.402c-1.388,0-2.459,0.466-3.216,1.402
			c-0.757,0.934-1.135,2.286-1.135,4.05c0,1.787,0.373,3.145,1.119,4.066c0.746,0.924,1.823,1.386,3.231,1.386
			C373.381,320.808,374.458,320.346,375.204,319.422z"/>
		<path fill="#1B75BB" d="M406.396,313.558v8.195c0,0.485-0.146,0.86-0.439,1.122c-0.295,0.263-0.686,0.395-1.17,0.395
			c-0.463,0-0.842-0.132-1.135-0.395c-0.293-0.262-0.439-0.637-0.439-1.122v-8.161c0-1.283-0.232-2.213-0.695-2.791
			c-0.462-0.578-1.187-0.868-2.174-0.868c-1.156,0-2.068,0.395-2.743,1.185c-0.673,0.787-1.011,1.864-1.011,3.229v7.406
			c0,0.485-0.146,0.86-0.44,1.122c-0.292,0.263-0.68,0.395-1.164,0.395c-0.462,0-0.841-0.132-1.134-0.395
			c-0.296-0.262-0.443-0.637-0.443-1.122v-8.161c0-1.283-0.231-2.213-0.693-2.791c-0.463-0.578-1.188-0.868-2.174-0.868
			c-1.157,0-2.076,0.395-2.76,1.185c-0.682,0.787-1.023,1.864-1.023,3.229v7.406c0,0.485-0.147,0.86-0.441,1.122
			c-0.295,0.263-0.673,0.395-1.135,0.395s-0.846-0.132-1.15-0.395c-0.306-0.262-0.457-0.637-0.457-1.122v-12.828
			c0-0.462,0.157-0.83,0.472-1.104c0.316-0.273,0.694-0.409,1.136-0.409s0.805,0.132,1.087,0.395
			c0.284,0.261,0.427,0.624,0.427,1.088v1.166c0.46-0.883,1.102-1.557,1.922-2.019c0.819-0.461,1.766-0.691,2.837-0.691
			c1.177,0,2.149,0.239,2.917,0.725c0.766,0.482,1.338,1.229,1.717,2.237c0.463-0.903,1.147-1.624,2.051-2.16
			c0.902-0.537,1.934-0.802,3.086-0.802C404.67,307.351,406.396,309.42,406.396,313.558z"/>
		<path fill="#1B75BB" d="M424.018,319.581c0.189,0.229,0.285,0.525,0.285,0.88c0,0.611-0.379,1.125-1.136,1.547
			c-0.737,0.419-1.54,0.745-2.411,0.977c-0.873,0.229-1.707,0.347-2.506,0.347c-2.439,0-4.363-0.709-5.77-2.127
			c-1.408-1.419-2.112-3.359-2.112-5.815c0-1.579,0.312-2.975,0.931-4.193c0.618-1.219,1.492-2.164,2.615-2.838
			c1.125-0.672,2.401-1.007,3.832-1.007c2.057,0,3.688,0.66,4.885,1.985c1.198,1.323,1.797,3.11,1.797,5.357
			c0,0.842-0.379,1.263-1.135,1.263h-9.741c0.212,3.256,1.776,4.884,4.698,4.884c0.776,0,1.449-0.104,2.017-0.314
			s1.167-0.482,1.798-0.82c0.062-0.042,0.234-0.129,0.52-0.267c0.285-0.137,0.52-0.207,0.709-0.207
			C423.587,319.231,423.829,319.349,424.018,319.581z M414.877,310.847c-0.736,0.78-1.178,1.872-1.325,3.28h8.134
			c-0.063-1.43-0.425-2.527-1.088-3.294c-0.662-0.769-1.592-1.152-2.79-1.152C416.59,309.681,415.61,310.071,414.877,310.847z"/>
		<path fill="#1B75BB" d="M438.109,308.704c0,0.464-0.115,0.81-0.348,1.041c-0.23,0.231-0.629,0.366-1.196,0.408l-0.947,0.097
			c-1.323,0.126-2.306,0.589-2.946,1.388c-0.643,0.798-0.963,1.763-0.963,2.899v7.216c0,0.506-0.146,0.884-0.439,1.137
			c-0.297,0.252-0.674,0.38-1.137,0.38s-0.844-0.128-1.148-0.38c-0.307-0.253-0.459-0.631-0.459-1.137v-12.828
			c0-0.483,0.152-0.857,0.459-1.118c0.305-0.263,0.686-0.395,1.148-0.395c0.42,0,0.773,0.132,1.057,0.395
			c0.285,0.261,0.427,0.624,0.427,1.088v1.513c0.42-0.926,1.03-1.63,1.828-2.113c0.798-0.48,1.702-0.766,2.71-0.852l0.442-0.03
			C437.604,307.351,438.109,307.78,438.109,308.704z"/>
		<path fill="#1B75BB" d="M443.199,322.355c-1.123-0.651-1.998-1.578-2.615-2.774c-0.621-1.2-0.932-2.586-0.932-4.161
			c0-1.599,0.32-3.006,0.963-4.225c0.641-1.219,1.538-2.164,2.694-2.838c1.156-0.672,2.479-1.007,3.972-1.007
			c0.799,0,1.604,0.115,2.412,0.344c0.81,0.233,1.527,0.548,2.159,0.947c0.673,0.463,1.009,0.999,1.009,1.608
			c0,0.356-0.095,0.655-0.283,0.898c-0.189,0.241-0.432,0.36-0.726,0.36c-0.188,0-0.378-0.045-0.566-0.14
			c-0.189-0.095-0.431-0.236-0.726-0.426c-0.527-0.337-1.015-0.593-1.467-0.773c-0.451-0.179-0.992-0.267-1.624-0.267
			c-1.429,0-2.536,0.482-3.323,1.448c-0.79,0.967-1.184,2.313-1.184,4.037c0,1.723,0.389,3.053,1.167,3.986
			c0.776,0.936,1.88,1.402,3.31,1.402c0.631,0,1.188-0.094,1.672-0.284c0.482-0.189,0.975-0.439,1.48-0.755
			c0.231-0.146,0.463-0.274,0.694-0.38c0.231-0.104,0.44-0.156,0.628-0.156c0.297,0,0.537,0.12,0.725,0.362
			c0.189,0.241,0.286,0.542,0.286,0.896c0,0.298-0.08,0.564-0.235,0.806c-0.158,0.241-0.428,0.486-0.806,0.741
			c-0.63,0.419-1.364,0.745-2.206,0.977c-0.841,0.229-1.691,0.347-2.555,0.347C445.631,323.331,444.324,323.006,443.199,322.355z"/>
		<path fill="#1B75BB" d="M456.611,303.819c-0.358-0.335-0.537-0.777-0.537-1.326c0-0.545,0.179-0.98,0.537-1.307
			c0.357-0.327,0.84-0.488,1.449-0.488c0.59,0,1.068,0.161,1.435,0.488c0.369,0.326,0.554,0.762,0.554,1.307
			c0,0.549-0.181,0.991-0.536,1.326c-0.358,0.337-0.843,0.505-1.452,0.505S456.969,304.156,456.611,303.819z M456.911,322.89
			c-0.304-0.253-0.458-0.631-0.458-1.137v-12.794c0-0.506,0.154-0.892,0.458-1.152c0.304-0.263,0.687-0.395,1.149-0.395
			s0.841,0.132,1.137,0.395c0.293,0.261,0.44,0.646,0.44,1.152v12.794c0,0.506-0.147,0.884-0.44,1.137
			c-0.296,0.252-0.674,0.38-1.137,0.38S457.215,323.142,456.911,322.89z"/>
		<path fill="#1B75BB" d="M467.188,322.355c-1.147-0.651-2.03-1.582-2.648-2.791c-0.62-1.208-0.932-2.611-0.932-4.209
			c0-1.617,0.312-3.031,0.932-4.238c0.618-1.21,1.501-2.141,2.648-2.792c1.146-0.65,2.472-0.975,3.986-0.975
			c1.513,0,2.843,0.324,3.987,0.975c1.146,0.651,2.027,1.582,2.648,2.792c0.619,1.207,0.93,2.621,0.93,4.238
			c0,1.598-0.311,3.001-0.93,4.209c-0.621,1.209-1.503,2.14-2.648,2.791c-1.145,0.65-2.475,0.976-3.987,0.976
			C469.66,323.331,468.334,323.006,467.188,322.355z M474.406,319.422c0.744-0.922,1.118-2.279,1.118-4.066
			c0-1.764-0.378-3.116-1.134-4.05c-0.756-0.937-1.828-1.402-3.216-1.402s-2.458,0.466-3.216,1.402
			c-0.755,0.934-1.135,2.286-1.135,4.05c0,1.787,0.373,3.145,1.12,4.066c0.745,0.924,1.823,1.386,3.23,1.386
			C472.583,320.808,473.658,320.346,474.406,319.422z"/>
		<path fill="#1B75BB" d="M492.66,322.687c-0.285-0.286-0.426-0.668-0.426-1.152v-19.072c0-0.481,0.141-0.866,0.426-1.149
			c0.282-0.285,0.678-0.427,1.183-0.427h11.601c0.482,0,0.855,0.115,1.117,0.347c0.264,0.23,0.395,0.559,0.395,0.979
			s-0.131,0.74-0.395,0.962c-0.262,0.218-0.635,0.331-1.117,0.331h-10.026v6.997h9.394c0.482,0,0.856,0.115,1.119,0.346
			c0.262,0.232,0.395,0.559,0.395,0.979c0,0.42-0.133,0.746-0.395,0.976c-0.263,0.232-0.637,0.347-1.119,0.347h-9.394v7.345h10.026
			c1.006,0,1.512,0.431,1.512,1.294c0,0.421-0.131,0.746-0.395,0.977c-0.262,0.232-0.635,0.346-1.117,0.346h-11.601
			C493.338,323.109,492.942,322.968,492.66,322.687z"/>
		<path fill="#1B75BB" d="M511.258,322.89c-0.305-0.253-0.459-0.631-0.459-1.137v-19.479c0-0.505,0.154-0.887,0.459-1.149
			c0.304-0.265,0.687-0.396,1.149-0.396c0.462,0,0.841,0.131,1.136,0.396c0.293,0.263,0.441,0.645,0.441,1.149v19.479
			c0,0.506-0.148,0.884-0.441,1.137c-0.295,0.252-0.674,0.38-1.136,0.38C511.944,323.27,511.562,323.142,511.258,322.89z"/>
		<path fill="#1B75BB" d="M531.698,319.581c0.188,0.229,0.285,0.525,0.285,0.88c0,0.611-0.378,1.125-1.137,1.547
			c-0.735,0.419-1.538,0.745-2.409,0.977c-0.875,0.229-1.708,0.347-2.506,0.347c-2.439,0-4.363-0.709-5.771-2.127
			c-1.408-1.419-2.111-3.359-2.111-5.815c0-1.579,0.311-2.975,0.931-4.193c0.618-1.219,1.493-2.164,2.614-2.838
			c1.125-0.672,2.402-1.007,3.832-1.007c2.059,0,3.689,0.66,4.885,1.985c1.199,1.323,1.797,3.11,1.797,5.357
			c0,0.842-0.377,1.263-1.133,1.263h-9.742c0.211,3.256,1.777,4.884,4.699,4.884c0.775,0,1.449-0.104,2.016-0.314
			s1.168-0.482,1.797-0.82c0.063-0.042,0.234-0.129,0.521-0.267c0.284-0.137,0.521-0.207,0.71-0.207
			C531.268,319.231,531.51,319.349,531.698,319.581z M522.557,310.847c-0.734,0.78-1.178,1.872-1.324,3.28h8.134
			c-0.063-1.43-0.425-2.527-1.088-3.294c-0.662-0.769-1.593-1.152-2.79-1.152C524.27,309.681,523.291,310.071,522.557,310.847z"/>
		<path fill="#1B75BB" d="M538.9,322.355c-1.123-0.651-1.996-1.578-2.615-2.774c-0.62-1.2-0.931-2.586-0.931-4.161
			c0-1.599,0.319-3.006,0.963-4.225c0.64-1.219,1.538-2.164,2.694-2.838c1.156-0.672,2.479-1.007,3.971-1.007
			c0.799,0,1.604,0.115,2.414,0.344c0.809,0.233,1.525,0.548,2.158,0.947c0.672,0.463,1.01,0.999,1.01,1.608
			c0,0.356-0.096,0.655-0.284,0.898c-0.19,0.241-0.432,0.36-0.726,0.36c-0.189,0-0.379-0.045-0.566-0.14
			c-0.189-0.095-0.432-0.236-0.727-0.426c-0.526-0.337-1.014-0.593-1.466-0.773c-0.452-0.179-0.991-0.267-1.624-0.267
			c-1.43,0-2.537,0.482-3.324,1.448c-0.789,0.967-1.182,2.313-1.182,4.037c0,1.723,0.389,3.053,1.166,3.986
			c0.776,0.936,1.879,1.402,3.31,1.402c0.631,0,1.187-0.094,1.672-0.284c0.482-0.189,0.976-0.439,1.479-0.755
			c0.232-0.146,0.463-0.274,0.695-0.38c0.23-0.104,0.439-0.156,0.629-0.156c0.296,0,0.536,0.12,0.725,0.362
			c0.189,0.241,0.285,0.542,0.285,0.896c0,0.298-0.081,0.564-0.236,0.806c-0.158,0.241-0.428,0.486-0.805,0.741
			c-0.629,0.419-1.365,0.745-2.205,0.977c-0.842,0.229-1.692,0.347-2.556,0.347C541.333,323.331,540.025,323.006,538.9,322.355z"/>
		<path fill="#1B75BB" d="M561.6,321.204c0.199,0.2,0.299,0.478,0.299,0.836c0,0.42-0.162,0.74-0.488,0.96
			c-0.325,0.223-0.803,0.31-1.435,0.27l-0.851-0.064c-1.703-0.126-2.974-0.646-3.814-1.559c-0.84-0.914-1.261-2.268-1.261-4.053
			v-7.408h-1.893c-0.925,0-1.387-0.409-1.387-1.227c0-0.382,0.122-0.68,0.364-0.902c0.239-0.22,0.582-0.328,1.022-0.328h1.893v-3.25
			c0-0.482,0.142-0.859,0.425-1.133c0.285-0.274,0.667-0.409,1.152-0.409c0.482,0,0.871,0.135,1.165,0.409
			c0.295,0.273,0.442,0.65,0.442,1.133v3.25h3.119c0.443,0,0.783,0.108,1.024,0.328c0.243,0.223,0.362,0.521,0.362,0.902
			c0,0.396-0.119,0.701-0.362,0.913c-0.241,0.209-0.581,0.313-1.024,0.313h-3.119v7.63c0,0.989,0.203,1.712,0.613,2.173
			c0.409,0.462,1.036,0.729,1.877,0.789l0.883,0.063C561.067,320.883,561.398,321.006,561.6,321.204z"/>
		<path fill="#1B75BB" d="M574.571,308.704c0,0.464-0.116,0.81-0.347,1.041c-0.232,0.231-0.63,0.366-1.197,0.408l-0.947,0.097
			c-1.322,0.126-2.305,0.589-2.945,1.388c-0.643,0.798-0.963,1.763-0.963,2.899v7.216c0,0.506-0.146,0.884-0.439,1.137
			c-0.297,0.252-0.674,0.38-1.137,0.38s-0.846-0.128-1.15-0.38c-0.305-0.253-0.457-0.631-0.457-1.137v-12.828
			c0-0.483,0.152-0.857,0.457-1.118c0.305-0.263,0.688-0.395,1.15-0.395c0.42,0,0.773,0.132,1.055,0.395
			c0.285,0.261,0.428,0.624,0.428,1.088v1.513c0.42-0.926,1.029-1.63,1.828-2.113c0.799-0.48,1.703-0.766,2.711-0.852l0.441-0.03
			C574.066,307.351,574.571,307.78,574.571,308.704z"/>
		<path fill="#1B75BB" d="M579.756,322.355c-1.146-0.651-2.029-1.582-2.648-2.791c-0.619-1.208-0.932-2.611-0.932-4.209
			c0-1.617,0.313-3.031,0.932-4.238c0.619-1.21,1.502-2.141,2.648-2.792c1.146-0.65,2.473-0.975,3.987-0.975
			c1.513,0,2.841,0.324,3.987,0.975c1.145,0.651,2.027,1.582,2.647,2.792c0.62,1.207,0.929,2.621,0.929,4.238
			c0,1.598-0.309,3.001-0.929,4.209c-0.62,1.209-1.503,2.14-2.647,2.791c-1.146,0.65-2.475,0.976-3.987,0.976
			C582.229,323.331,580.902,323.006,579.756,322.355z M586.975,319.422c0.744-0.922,1.117-2.279,1.117-4.066
			c0-1.764-0.377-3.116-1.133-4.05c-0.756-0.937-1.828-1.402-3.216-1.402s-2.459,0.466-3.216,1.402
			c-0.756,0.934-1.135,2.286-1.135,4.05c0,1.787,0.373,3.145,1.119,4.066c0.746,0.924,1.824,1.386,3.231,1.386
			S586.227,320.346,586.975,319.422z M583.806,305.867c-0.231,0-0.437-0.082-0.614-0.251c-0.18-0.169-0.27-0.367-0.27-0.603
			c0-0.207,0.074-0.396,0.223-0.565l3.404-4.445c0.422-0.567,0.904-0.85,1.451-0.85c0.396,0,0.735,0.137,1.006,0.411
			c0.273,0.272,0.411,0.598,0.411,0.975c0,0.484-0.253,0.936-0.755,1.357l-4.256,3.75
			C584.236,305.793,584.037,305.867,583.806,305.867z"/>
		<path fill="#1B75BB" d="M609.152,313.558v8.195c0,0.485-0.144,0.86-0.426,1.122c-0.285,0.263-0.678,0.395-1.182,0.395
			c-0.485,0-0.869-0.138-1.152-0.41s-0.425-0.643-0.425-1.106v-8.036c0-1.303-0.257-2.26-0.772-2.87
			c-0.516-0.608-1.32-0.914-2.412-0.914c-1.28,0-2.313,0.402-3.089,1.2c-0.778,0.798-1.167,1.869-1.167,3.214v7.406
			c0,0.464-0.143,0.834-0.424,1.106c-0.285,0.272-0.667,0.41-1.152,0.41c-0.482,0-0.872-0.138-1.166-0.41
			c-0.295-0.272-0.441-0.643-0.441-1.106v-12.828c0-0.439,0.152-0.803,0.457-1.088c0.305-0.283,0.688-0.425,1.15-0.425
			s0.832,0.136,1.105,0.409c0.271,0.273,0.408,0.632,0.408,1.073v1.291c0.506-0.923,1.208-1.628,2.112-2.11
			c0.903-0.485,1.923-0.725,3.058-0.725C607.313,307.351,609.152,309.42,609.152,313.558z"/>
		<path fill="#1B75BB" d="M614.068,303.819c-0.359-0.335-0.536-0.777-0.536-1.326c0-0.545,0.177-0.98,0.536-1.307
			c0.357-0.327,0.84-0.488,1.449-0.488c0.589,0,1.066,0.161,1.436,0.488c0.369,0.326,0.553,0.762,0.553,1.307
			c0,0.549-0.18,0.991-0.536,1.326c-0.358,0.337-0.843,0.505-1.452,0.505S614.426,304.156,614.068,303.819z M614.368,322.89
			c-0.305-0.253-0.458-0.631-0.458-1.137v-12.794c0-0.506,0.153-0.892,0.458-1.152c0.305-0.263,0.687-0.395,1.149-0.395
			s0.842,0.132,1.137,0.395c0.293,0.261,0.439,0.646,0.439,1.152v12.794c0,0.506-0.146,0.884-0.439,1.137
			c-0.295,0.252-0.674,0.38-1.137,0.38S614.673,323.142,614.368,322.89z"/>
		<path fill="#1B75BB" d="M624.611,322.355c-1.123-0.651-1.996-1.578-2.613-2.774c-0.621-1.2-0.932-2.586-0.932-4.161
			c0-1.599,0.318-3.006,0.962-4.225c0.64-1.219,1.54-2.164,2.696-2.838c1.156-0.672,2.477-1.007,3.969-1.007
			c0.799,0,1.604,0.115,2.414,0.344c0.809,0.233,1.529,0.548,2.158,0.947c0.672,0.463,1.01,0.999,1.01,1.608
			c0,0.356-0.096,0.655-0.283,0.898c-0.189,0.241-0.432,0.36-0.727,0.36c-0.189,0-0.377-0.045-0.566-0.14s-0.432-0.236-0.725-0.426
			c-0.527-0.337-1.016-0.593-1.467-0.773c-0.451-0.179-0.992-0.267-1.625-0.267c-1.428,0-2.535,0.482-3.322,1.448
			c-0.791,0.967-1.184,2.313-1.184,4.037c0,1.723,0.389,3.053,1.166,3.986c0.777,0.936,1.881,1.402,3.309,1.402
			c0.633,0,1.189-0.094,1.674-0.284c0.482-0.189,0.977-0.439,1.48-0.755c0.23-0.146,0.463-0.274,0.693-0.38
			c0.232-0.104,0.441-0.156,0.629-0.156c0.295,0,0.537,0.12,0.725,0.362c0.189,0.241,0.285,0.542,0.285,0.896
			c0,0.298-0.08,0.564-0.234,0.806c-0.16,0.241-0.428,0.486-0.807,0.741c-0.629,0.419-1.365,0.745-2.205,0.977
			c-0.842,0.229-1.691,0.347-2.555,0.347C627.045,323.331,625.738,323.006,624.611,322.355z"/>
		<path fill="#1B75BB" d="M640.438,322.355c-1.146-0.651-2.031-1.582-2.648-2.791c-0.621-1.208-0.93-2.611-0.93-4.209
			c0-1.617,0.309-3.031,0.93-4.238c0.617-1.21,1.502-2.141,2.648-2.792c1.145-0.65,2.473-0.975,3.986-0.975s2.842,0.324,3.988,0.975
			c1.145,0.651,2.027,1.582,2.648,2.792c0.619,1.207,0.93,2.621,0.93,4.238c0,1.598-0.311,3.001-0.93,4.209
			c-0.621,1.209-1.504,2.14-2.648,2.791c-1.146,0.65-2.475,0.976-3.988,0.976S641.582,323.006,640.438,322.355z M647.654,319.422
			c0.746-0.922,1.119-2.279,1.119-4.066c0-1.764-0.379-3.116-1.135-4.05c-0.756-0.937-1.826-1.402-3.215-1.402
			s-2.459,0.466-3.215,1.402c-0.756,0.934-1.137,2.286-1.137,4.05c0,1.787,0.375,3.145,1.121,4.066
			c0.744,0.924,1.824,1.386,3.23,1.386C645.832,320.808,646.908,320.346,647.654,319.422z"/>
	</g>
	<path fill="#25A9E0" d="M195.673,295.632c-0.999,0.076-1.997,0.171-3.012,0.171h-0.198c-15.226,0-29.262-8.666-37.476-22.624
		c-2.584-4.392-7.218-7.168-12.312-7.132c-10.879,0.078-17.479,11.918-11.957,21.292c13.029,22.141,35.97,36.406,61.255,36.588
		v0.002l0.344,0.003l0.833-0.005c10.337-0.074,20.167-2.486,29.07-6.733C211.89,312.263,202.817,304.84,195.673,295.632"/>
	<path fill="#25A9E0" d="M248.765,195.12c-7.142-9.206-16.218-16.624-26.546-21.557c-8.902-4.253-18.729-6.662-29.069-6.733v-0.004
		l-1.174-0.006v0.01c-25.287,0.176-48.226,14.442-61.256,36.581c-5.52,9.376,1.077,21.217,11.956,21.293
		c5.096,0.036,9.729-2.736,12.312-7.129c8.215-13.959,22.252-22.627,37.476-22.627h0.198c1.018,0,2.014,0.096,3.013,0.172
		c10.144,0.759,19.356,5.28,26.546,12.348c6.415,6.307,11.199,14.6,13.573,24.032c1.086,4.31,1.71,8.836,1.71,13.531v0.688
		c0,4.696-0.624,9.221-1.71,13.535c-2.375,9.43-7.158,17.728-13.573,24.03c7.193,7.07,16.406,11.588,26.546,12.347
		c10.523-13.556,16.864-30.96,16.864-49.912v-0.688C265.628,226.081,259.288,208.68,248.765,195.12"/>
	<path fill="#1B75BB" d="M248.765,195.12c1-0.076,1.995-0.172,3.014-0.172h0.197c15.224,0,29.264,8.668,37.476,22.627
		c2.582,4.393,7.218,7.165,12.312,7.129c10.878-0.076,17.475-11.917,11.958-21.293c-13.033-22.139-35.971-36.405-61.256-36.581
		v-0.01l-1.177,0.006v0.004c-10.338,0.071-20.167,2.48-29.07,6.733C232.547,178.496,241.623,185.914,248.765,195.12"/>
	<path fill="#1B75BB" d="M301.765,266.047L301.765,266.047c-5.094-0.036-9.73,2.74-12.314,7.129
		c-8.214,13.961-22.25,22.627-37.476,22.627h-0.196c-1.018,0-2.013-0.095-3.012-0.171c-10.142-0.759-19.354-5.276-26.547-12.347
		c-6.414-6.303-11.198-14.601-13.572-24.03h27.145c1.086-4.314,1.708-8.839,1.708-13.535v-0.687c0-4.697-0.621-9.224-1.708-13.533
		h-27.145c2.374-9.433,7.159-17.726,13.572-24.032c-7.192-7.067-16.406-11.589-26.546-12.35
		c-10.52,13.559-16.862,30.963-16.862,49.915v0.687c0,18.954,6.343,36.356,16.862,49.912c7.143,9.208,16.217,16.629,26.546,21.559
		c8.903,4.25,18.733,6.662,29.07,6.734l0.834,0.004l0.342-0.002v-0.002c25.286-0.182,48.224-14.445,61.255-36.583
		C319.24,277.965,312.64,266.125,301.765,266.047"/>
</g>
</svg>
